<svg width="100" height="100" viewBox="0 0 100 100" xmlns="http://www.w3.org/2000/svg">
  <defs>
    <linearGradient id="eventGradient" x1="0%" y1="0%" x2="100%" y2="100%">
      <stop offset="0%" style="stop-color:#ec4899;stop-opacity:1" />
      <stop offset="100%" style="stop-color:#f43f5e;stop-opacity:1" />
    </linearGradient>
  </defs>
  <circle cx="50" cy="50" r="45" fill="url(#eventGradient)"/>
  <!-- Calendar -->
  <rect x="30" y="35" width="40" height="35" fill="white" rx="4"/>
  <rect x="32" y="40" width="36" height="28" fill="#f8fafc" rx="2"/>
  <!-- Calendar Header -->
  <rect x="30" y="35" width="40" height="8" fill="#1a202c" rx="4 4 0 0"/>
  <!-- Calendar Rings -->
  <circle cx="38" cy="32" r="2" fill="#666"/>
  <circle cx="50" cy="32" r="2" fill="#666"/>
  <circle cx="62" cy="32" r="2" fill="#666"/>
  <!-- Calendar Grid -->
  <rect x="35" y="45" width="4" height="4" fill="#4f46e5"/>
  <rect x="42" y="45" width="4" height="4" fill="#e5e7eb"/>
  <rect x="49" y="45" width="4" height="4" fill="#e5e7eb"/>
  <rect x="56" y="45" width="4" height="4" fill="#e5e7eb"/>
  <rect x="63" y="45" width="4" height="4" fill="#e5e7eb"/>
  
  <rect x="35" y="52" width="4" height="4" fill="#e5e7eb"/>
  <rect x="42" y="52" width="4" height="4" fill="#fbbf24"/>
  <rect x="49" y="52" width="4" height="4" fill="#e5e7eb"/>
  <rect x="56" y="52" width="4" height="4" fill="#10b981"/>
  <rect x="63" y="52" width="4" height="4" fill="#e5e7eb"/>
  
  <rect x="35" y="59" width="4" height="4" fill="#e5e7eb"/>
  <rect x="42" y="59" width="4" height="4" fill="#e5e7eb"/>
  <rect x="49" y="59" width="4" height="4" fill="#ef4444"/>
  <rect x="56" y="59" width="4" height="4" fill="#e5e7eb"/>
  <rect x="63" y="59" width="4" height="4" fill="#e5e7eb"/>
  
  <!-- Tech conference symbol -->
  <circle cx="65" cy="55" r="8" fill="#fbbf24"/>
  <text x="65" y="60" font-family="Arial, sans-serif" font-size="8" font-weight="bold" text-anchor="middle" fill="white">TECH</text>
</svg>