<svg width="100" height="100" viewBox="0 0 100 100" xmlns="http://www.w3.org/2000/svg">
  <defs>
    <linearGradient id="hackathonGradient" x1="0%" y1="0%" x2="100%" y2="100%">
      <stop offset="0%" style="stop-color:#ff6b35;stop-opacity:1" />
      <stop offset="100%" style="stop-color:#f7931e;stop-opacity:1" />
    </linearGradient>
  </defs>
  <circle cx="50" cy="50" r="45" fill="url(#hackathonGradient)"/>
  <!-- Computer/Laptop -->
  <rect x="25" y="35" width="50" height="30" fill="white" rx="3"/>
  <rect x="27" y="37" width="46" height="26" fill="#1a202c" rx="2"/>
  <!-- Screen with code -->
  <rect x="30" y="40" width="8" height="2" fill="#00ff00"/>
  <rect x="30" y="44" width="12" height="2" fill="#00ff00"/>
  <rect x="30" y="48" width="6" height="2" fill="#00ff00"/>
  <rect x="30" y="52" width="15" height="2" fill="#00ff00"/>
  <rect x="30" y="56" width="10" height="2" fill="#00ff00"/>
  <!-- India Flag Colors as accent -->
  <rect x="50" y="40" width="2" height="8" fill="#ff9933"/>
  <rect x="50" y="48" width="2" height="8" fill="white"/>
  <rect x="50" y="56" width="2" height="6" fill="#138808"/>
  <!-- Trophy element -->
  <path d="M60 45 L65 40 L70 45 L67.5 50 L62.5 50 Z" fill="#ffd700"/>
  <rect x="64" y="50" width="2" height="8" fill="#ffd700"/>
</svg>