<svg width="1200" height="300" viewBox="0 0 1200 300" xmlns="http://www.w3.org/2000/svg">
  <defs>
    <linearGradient id="internshipBg" x1="0%" y1="0%" x2="100%" y2="100%">
      <stop offset="0%" style="stop-color:#6366f1;stop-opacity:1" />
      <stop offset="50%" style="stop-color:#8b5cf6;stop-opacity:1" />
      <stop offset="100%" style="stop-color:#06b6d4;stop-opacity:1" />
    </linearGradient>
  </defs>
  
  <!-- Background -->
  <rect width="1200" height="300" fill="url(#internshipBg)"/>
  
  <!-- Corporate Buildings (BKC Style) -->
  <g opacity="0.3">
    <rect x="150" y="100" width="60" height="200" fill="rgba(0,0,0,0.2)" rx="3"/>
    <rect x="230" y="80" width="70" height="220" fill="rgba(0,0,0,0.2)" rx="3"/>
    <rect x="320" y="90" width="55" height="210" fill="rgba(0,0,0,0.2)" rx="3"/>
    <rect x="400" y="70" width="80" height="230" fill="rgba(0,0,0,0.2)" rx="3"/>
    <rect x="500" y="110" width="50" height="190" fill="rgba(0,0,0,0.2)" rx="3"/>
    <rect x="570" y="85" width="65" height="215" fill="rgba(0,0,0,0.2)" rx="3"/>
  </g>
  
  <!-- Office Windows -->
  <g fill="rgba(255,255,255,0.4)">
    <rect x="165" y="120" width="8" height="12" rx="1"/>
    <rect x="180" y="120" width="8" height="12" rx="1"/>
    <rect x="195" y="120" width="8" height="12" rx="1"/>
    <rect x="245" y="100" width="10" height="15" rx="1"/>
    <rect x="260" y="100" width="10" height="15" rx="1"/>
    <rect x="275" y="100" width="10" height="15" rx="1"/>
    <rect x="335" y="110" width="9" height="14" rx="1"/>
    <rect x="350" y="110" width="9" height="14" rx="1"/>
  </g>
  
  <!-- Career Growth Arrow -->
  <g fill="white" opacity="0.8">
    <path d="M750 180 L850 120 L830 140 L900 140 L900 160 L830 160 L850 180 Z" fill="#fbbf24"/>
    <text x="800" y="210" font-family="Arial, sans-serif" font-size="14" text-anchor="middle">CAREER GROWTH</text>
  </g>
  
  <!-- Floating Professional Elements -->
  <g fill="white" opacity="0.7">
    <circle cx="950" cy="100" r="20" fill="rgba(255,255,255,0.1)"/>
    <text x="950" y="108" font-family="Arial, sans-serif" font-size="20" text-anchor="middle">💼</text>
    
    <circle cx="1050" cy="130" r="20" fill="rgba(255,255,255,0.1)"/>
    <text x="1050" y="138" font-family="Arial, sans-serif" font-size="20" text-anchor="middle">📈</text>
    
    <circle cx="1150" cy="110" r="20" fill="rgba(255,255,255,0.1)"/>
    <text x="1150" y="118" font-family="Arial, sans-serif" font-size="20" text-anchor="middle">🎯</text>
  </g>
  
  <!-- Internship Badge -->
  <rect x="50" y="200" width="220" height="60" fill="rgba(255,255,255,0.9)" rx="8"/>
  <text x="160" y="225" font-family="Arial, sans-serif" font-size="18" font-weight="bold" text-anchor="middle" fill="#6366f1">MUMBAI INTERNSHIPS</text>
  <text x="160" y="245" font-family="Arial, sans-serif" font-size="12" text-anchor="middle" fill="#64748b">Learn • Grow • Succeed</text>
  
  <!-- Rupee Symbols -->
  <g fill="rgba(255,255,255,0.3)" font-family="Arial, sans-serif" font-size="24">
    <text x="700" y="60">₹</text>
    <text x="800" y="80">₹</text>
    <text x="600" y="70">₹</text>
  </g>
</svg>